<svg width="114" height="173" viewBox="0 0 114 173" fill="none" xmlns="http://www.w3.org/2000/svg">
<path d="M112.5 115H1V106H112.5V115Z" stroke="#591F1D" stroke-width="2"/>
<path d="M11 121.558V115H102V121.558L93.5464 127.106H77.5L72.1639 131.646L69.1803 140.221L72.1639 152.327L79.1257 157.372H91.5574L96.5301 161.407L97.5246 164.938L96.5301 168.973L93.5464 172H77.5L72.1639 168.973V164.938H40.3388V168.973L35 172H19.4536L16 168L15.4754 162.92L19.4536 157.372H33.8743L40.3388 152.327L44.3169 140.221L40.3388 131.646L35 127.106H19.4536L11 121.558Z" stroke="#591F1D" stroke-width="2"/>
<path d="M20.5 77.5V83.5L26 88.5H33.5L40 93.5L44.5 100V106H70V100L73.5 93.5L78.5 90L88 88.5L93.5 83.5V77.5H20.5ZM20.5 77.5H12M12 77.5L10 74V70L12 67.5H100.5L103.5 70V74L100.5 77.5H12Z" stroke="#591F1D" stroke-width="2"/>
<path d="M57 67.5V36.6259M57 5.75185L65 2L70.5 3L74.5 6L75.5 12M57 5.75185L49.5 2L43 3L39 6L38 12M57 5.75185V36.6259M57 36.6259L70.5 28.5L75.5 28L81.5 28.5L86 30.5L91 35L95 41.5L95.5 48M57 36.6259L43 28.5L35 28L30 28.5L27 30.5L22.5 35L18.5 41.5V48" stroke="#591F1D" stroke-width="3"/>
</svg>
